<svg width="582" height="740" viewBox="0 0 582 740" fill="none" xmlns="http://www.w3.org/2000/svg">
<path fill-rule="evenodd" clip-rule="evenodd" d="M228.581 57.7517C283.08 65.3707 328.292 104.941 368.823 152.961C412.103 204.239 461.721 259.304 462.974 335.455C464.241 412.456 419.124 474.661 374.961 525.937C333.781 573.749 283.582 601.678 228.581 607.597C167.608 614.159 98.7837 616.949 55.8062 560.285C12.9603 503.794 22.3876 414.825 22.172 335.455C21.9553 255.645 11.9412 166.397 54.5808 109.03C97.5609 51.2043 167.113 49.1585 228.581 57.7517Z" fill="#334069"/>
<path fill-rule="evenodd" clip-rule="evenodd" d="M341.079 3.96497C425.898 -9.7331 530.796 11.0594 571.978 82.0321C610.791 148.924 525.613 216.381 507.407 290.616C489.295 364.47 540.794 469.788 468.585 503.622C396.456 537.418 331.439 446.529 264.415 404.472C215.473 373.761 155.563 351.405 140.744 297.906C125.526 242.965 159.509 191.196 192.096 143.383C231.859 85.0404 268.388 15.7045 341.079 3.96497Z" fill="#654EB0"/>
<path fill-rule="evenodd" clip-rule="evenodd" d="M252.515 344.091C288.785 342.899 323.944 353.441 354.571 371.732C386.79 390.973 412.159 417.69 429.363 449.706C449.113 486.457 471.951 527.385 459.416 566.833C446.813 606.491 398.6 622.497 365.704 650.029C327.876 681.689 303.176 739.507 252.515 739.997C201.917 740.487 179.498 678.912 137.618 652.236C93.4878 624.127 14.4213 628.876 1.69757 580.237C-11.3099 530.514 53.6988 494.324 85.4153 452.682C106.446 425.069 125.796 397.592 155.519 378.276C184.631 359.358 217.138 345.254 252.515 344.091Z" fill="#564787"/>
</svg>
